<svg width="178" height="27" viewBox="0 0 178 27" fill="none" xmlns="http://www.w3.org/2000/svg">
<path d="M4.83408 21.1C4.38408 21.0833 3.95075 20.9667 3.53408 20.75C3.13408 20.5333 2.80075 20.1583 2.53408 19.625C2.26742 19.0917 2.13408 18.3583 2.13408 17.425C2.13408 17.3083 2.13408 17.1917 2.13408 17.075C2.13408 16.9417 2.14242 16.8167 2.15908 16.7C2.22575 15.8667 2.42575 14.9417 2.75908 13.925C3.10908 12.8917 3.55908 11.8417 4.10908 10.775C4.65908 9.70833 5.28408 8.7 5.98408 7.75C6.68408 6.78333 7.41742 5.95833 8.18408 5.275C8.36742 5.10833 8.55075 4.975 8.73408 4.875C8.91742 4.75833 9.10908 4.66667 9.30908 4.6C8.67575 4.71667 8.00908 4.81667 7.30908 4.9C6.62575 4.98333 5.96742 5.05833 5.33408 5.125C4.71742 5.19167 4.19242 5.275 3.75908 5.375C2.87575 5.575 2.20075 5.95833 1.73408 6.525C1.28408 7.09167 1.06742 7.775 1.08408 8.575C0.817415 8.29167 0.617415 8 0.484082 7.7C0.367415 7.4 0.309082 7.11667 0.309082 6.85C0.309082 6.51667 0.375749 6.2 0.509082 5.9C0.659082 5.58333 0.834082 5.31667 1.03408 5.1C1.45075 4.61667 1.97575 4.26667 2.60908 4.05C3.25908 3.83333 3.93408 3.7 4.63408 3.65C5.35075 3.58333 6.02575 3.55 6.65908 3.55H11.7841C11.8841 3.55 11.8841 3.61667 11.7841 3.75C11.7007 3.88333 11.5757 4.03333 11.4091 4.2C11.2424 4.36667 11.0841 4.5 10.9341 4.6C10.4841 4.86667 9.96742 5.35833 9.38408 6.075C8.80075 6.775 8.20908 7.63333 7.60908 8.65C7.02575 9.65 6.49242 10.7583 6.00908 11.975C5.84242 12.375 5.65908 12.875 5.45908 13.475C5.27575 14.075 5.10908 14.7083 4.95908 15.375C4.82575 16.025 4.75908 16.6417 4.75908 17.225C4.75908 17.8417 4.87575 18.3667 5.10908 18.8C5.34242 19.2167 5.75075 19.425 6.33408 19.425C6.78408 19.425 7.31742 19.1583 7.93408 18.625C8.55075 18.0917 9.20075 17.4 9.88408 16.55C10.5674 15.6833 11.2341 14.775 11.8841 13.825C12.3341 13.1417 12.7257 12.425 13.0591 11.675C13.3924 10.925 13.7091 10.1833 14.0091 9.45C14.3091 8.71667 14.6257 8.03333 14.9591 7.4C15.1591 7.01667 15.4507 6.63333 15.8341 6.25C16.2174 5.85 16.6424 5.525 17.1091 5.275C17.5924 5.00833 18.0841 4.875 18.5841 4.875C18.6508 4.875 18.7091 4.875 18.7591 4.875C18.8257 4.875 18.8924 4.88333 18.9591 4.9C19.0757 4.91667 19.1341 4.94167 19.1341 4.975C19.1507 5.00833 19.1924 5.05833 19.2591 5.125C18.7091 5.875 18.1257 6.86667 17.5091 8.1C16.9091 9.33333 16.4258 10.7167 16.0591 12.25C15.8924 12.9333 15.7674 13.5833 15.6841 14.2C15.6174 14.8 15.5841 15.3583 15.5841 15.875C15.5841 16.975 15.7674 17.8417 16.1341 18.475C16.5007 19.1083 17.0341 19.425 17.7341 19.425C18.4007 19.425 19.0341 19.1917 19.6341 18.725C20.2508 18.2417 20.8174 17.6083 21.3341 16.825C21.8674 16.0417 22.3507 15.1917 22.7841 14.275C23.2174 13.3583 23.5924 12.4667 23.9091 11.6C24.0757 11.1667 24.2591 10.6333 24.4591 10C24.6591 9.36667 24.8341 8.70833 24.9841 8.025C25.1341 7.325 25.2091 6.68333 25.2091 6.1C25.2091 5.53333 25.1091 5.06667 24.9091 4.7C24.7091 4.31667 24.3591 4.125 23.8591 4.125C23.5924 4.125 23.2924 4.18333 22.9591 4.3C23.0091 4 23.2257 3.75833 23.6091 3.575C23.9924 3.375 24.4257 3.275 24.9091 3.275C25.3257 3.275 25.7341 3.35833 26.1341 3.525C26.5341 3.69167 26.8758 3.95833 27.1591 4.325C27.4424 4.69167 27.6008 5.19167 27.6341 5.825C27.6841 6.69167 27.5758 7.64167 27.3091 8.675C27.0591 9.70833 26.6841 10.7583 26.1841 11.825C25.7007 12.8917 25.1257 13.925 24.4591 14.925C23.8091 15.925 23.1091 16.8333 22.3591 17.65C21.9091 18.1333 21.3591 18.625 20.7091 19.125C20.0757 19.625 19.3841 20.0417 18.6341 20.375C17.8841 20.6917 17.1091 20.85 16.3091 20.85C16.1924 20.85 16.0757 20.85 15.9591 20.85C15.8424 20.8333 15.7174 20.8167 15.5841 20.8C14.7174 20.6667 14.1007 20.175 13.7341 19.325C13.3674 18.4583 13.1841 17.4167 13.1841 16.2C13.1841 15.5833 13.2257 14.9417 13.3091 14.275C13.3924 13.6083 13.5007 12.9333 13.6341 12.25C13.1341 13.2333 12.5591 14.2833 11.9091 15.4C11.2591 16.5 10.5424 17.5 9.75908 18.4C9.10908 19.15 8.48408 19.7167 7.88408 20.1C7.30075 20.4833 6.75075 20.75 6.23408 20.9C5.71742 21.0333 5.25075 21.1 4.83408 21.1ZM31.4899 20.65C30.7233 21.05 29.9149 21.25 29.0649 21.25C28.3483 21.25 27.6816 21.075 27.0649 20.725C26.4483 20.375 26.0316 19.8167 25.8149 19.05C25.7149 18.7 25.6649 18.3333 25.6649 17.95C25.6649 17.3167 25.7733 16.6667 25.9899 16C26.2233 15.3167 26.5233 14.6917 26.8899 14.125C27.4566 13.2417 28.1733 12.5083 29.0399 11.925C29.9066 11.3417 30.8649 11.05 31.9149 11.05C32.6983 11.05 33.3066 11.25 33.7399 11.65C34.1733 12.05 34.3899 12.5167 34.3899 13.05C34.3899 13.6833 34.1733 14.2417 33.7399 14.725C33.3233 15.1917 32.7733 15.55 32.0899 15.8C31.7566 15.9167 31.3983 16.0083 31.0149 16.075C30.6483 16.125 30.2983 16.15 29.9649 16.15C29.2816 16.15 28.7566 16.0583 28.3899 15.875C28.0733 16.6917 27.9149 17.4417 27.9149 18.125C27.9149 18.7417 28.0566 19.25 28.3399 19.65C28.6233 20.0333 29.0733 20.225 29.6899 20.225C30.2066 20.225 30.7149 20.0833 31.2149 19.8C31.7316 19.5167 32.2066 19.1667 32.6399 18.75C33.0899 18.3333 33.4649 17.9333 33.7649 17.55C33.9983 17.2667 34.1983 17 34.3649 16.75C34.5316 16.5 34.7066 16.2167 34.8899 15.9C35.0733 15.5667 35.2899 15.1583 35.5399 14.675C35.6066 14.5583 35.6649 14.5 35.7149 14.5C35.8149 14.5 35.8649 14.6333 35.8649 14.9C35.8649 15.05 35.8399 15.2167 35.7899 15.4C35.7566 15.5667 35.6899 15.7417 35.5899 15.925C35.3566 16.3417 35.0733 16.8 34.7399 17.3C34.4233 17.7833 34.0983 18.25 33.7649 18.7C33.4649 19.1 33.1233 19.4667 32.7399 19.8C32.3566 20.1333 31.9399 20.4167 31.4899 20.65ZM29.2149 15.325C29.2983 15.375 29.3899 15.4083 29.4899 15.425C29.5899 15.4417 29.6899 15.45 29.7899 15.45C30.1233 15.45 30.4566 15.375 30.7899 15.225C31.1233 15.0583 31.4066 14.8917 31.6399 14.725C32.0233 14.4583 32.3483 14.1417 32.6149 13.775C32.8816 13.4083 33.0316 12.9917 33.0649 12.525C33.0816 12.325 33.0316 12.1583 32.9149 12.025C32.8149 11.875 32.6316 11.8 32.3649 11.8C32.2316 11.8 32.0649 11.825 31.8649 11.875C31.5983 11.9417 31.3316 12.0667 31.0649 12.25C30.7983 12.4333 30.5399 12.65 30.2899 12.9C30.2066 12.9833 30.0566 13.15 29.8399 13.4C29.6399 13.6333 29.4483 13.9 29.2649 14.2C29.0816 14.4833 28.9899 14.7333 28.9899 14.95C28.9899 15.1333 29.0649 15.2583 29.2149 15.325ZM35.9499 21.15C35.4832 21.15 35.1332 20.9833 34.8999 20.65C34.6666 20.3 34.5499 19.8333 34.5499 19.25C34.5499 19.1667 34.5499 19.0833 34.5499 19C34.5499 18.9167 34.5582 18.8333 34.5749 18.75C34.6582 18.1167 34.7999 17.4 34.9999 16.6C35.2166 15.8 35.4666 14.9583 35.7499 14.075C35.9166 13.575 36.1249 12.95 36.3749 12.2C36.6416 11.4333 36.9499 10.6167 37.2999 9.75C37.6499 8.86667 38.0332 7.99167 38.4499 7.125C38.8832 6.25833 39.3582 5.475 39.8749 4.775C40.3916 4.05833 40.9332 3.48333 41.4999 3.05C42.0832 2.61667 42.6999 2.4 43.3499 2.4C43.8832 2.4 44.2499 2.53333 44.4499 2.8C44.6499 3.05 44.7499 3.35 44.7499 3.7C44.7499 4.06667 44.6832 4.44167 44.5499 4.825C44.4166 5.19167 44.2832 5.5 44.1499 5.75C43.8499 6.35 43.4582 7.025 42.9749 7.775C42.4916 8.525 41.9832 9.225 41.4499 9.875C41.1332 10.2917 40.7416 10.7583 40.2749 11.275C39.8082 11.7917 39.3666 12.2667 38.9499 12.7C38.5499 13.1333 38.2582 13.4333 38.0749 13.6L37.6749 14.75C37.5582 15.0667 37.4416 15.4417 37.3249 15.875C37.2249 16.3083 37.1332 16.7417 37.0499 17.175C36.9832 17.5917 36.9249 17.9583 36.8749 18.275C36.8582 18.3417 36.8499 18.4083 36.8499 18.475C36.8499 18.5417 36.8499 18.6 36.8499 18.65C36.8499 19.15 37.0416 19.4 37.4249 19.4C37.6582 19.4 37.9499 19.2917 38.2999 19.075C38.6332 18.875 38.9499 18.6167 39.2499 18.3C39.5666 17.9667 39.7916 17.7167 39.9249 17.55C40.2582 17.1167 40.5749 16.6583 40.8749 16.175C41.1749 15.675 41.4332 15.2167 41.6499 14.8C41.7332 14.6667 41.7916 14.6 41.8249 14.6C41.9249 14.6 41.9749 14.7417 41.9749 15.025C41.9749 15.1583 41.9499 15.3167 41.8999 15.5C41.8666 15.6667 41.8082 15.825 41.7249 15.975C41.4916 16.375 41.2166 16.8167 40.8999 17.3C40.5832 17.7833 40.2582 18.25 39.9249 18.7C39.6749 19.0333 39.3249 19.3917 38.8749 19.775C38.4249 20.1583 37.9416 20.4833 37.4249 20.75C36.9082 21.0167 36.4166 21.15 35.9499 21.15ZM38.5749 12.175C39.4082 11.1917 40.2499 10.1417 41.0999 9.025C41.9666 7.89167 42.6832 6.74167 43.2499 5.575C43.2832 5.49167 43.3582 5.325 43.4749 5.075C43.5916 4.825 43.6999 4.55 43.7999 4.25C43.8999 3.93333 43.9499 3.66667 43.9499 3.45C43.9499 3.16667 43.8416 3.025 43.6249 3.025H43.4499C43.2332 3.025 42.9749 3.175 42.6749 3.475C42.3916 3.775 42.0999 4.175 41.7999 4.675C41.4166 5.30833 41.0416 6.04167 40.6749 6.875C40.3082 7.69167 39.9499 8.55833 39.5999 9.475C39.2499 10.3917 38.9082 11.2917 38.5749 12.175ZM44.0517 21.25C43.2683 21.25 42.635 21.1083 42.1517 20.825C41.6683 20.525 41.3183 20.1333 41.1017 19.65C40.9017 19.15 40.8017 18.6167 40.8017 18.05C40.8017 17.4833 40.885 16.9083 41.0517 16.325C41.2183 15.7417 41.4433 15.1917 41.7267 14.675C42.31 13.625 43.0267 12.7583 43.8767 12.075C44.7433 11.3917 45.8017 11.05 47.0517 11.05C47.835 11.05 48.4433 11.25 48.8767 11.65C49.31 12.05 49.5267 12.5167 49.5267 13.05C49.5267 13.55 49.3767 14.0083 49.0767 14.425C48.7933 14.8417 48.41 15.05 47.9267 15.05C47.66 15.05 47.4267 14.975 47.2267 14.825C47.0267 14.675 46.9267 14.4417 46.9267 14.125C46.9267 14.075 46.9267 14.025 46.9267 13.975C46.9433 13.9083 46.96 13.8417 46.9767 13.775C47.0767 13.7583 47.2183 13.7333 47.4017 13.7C47.6017 13.65 47.76 13.5333 47.8767 13.35C48.0933 13.05 48.2017 12.75 48.2017 12.45C48.2017 12.2667 48.1433 12.1167 48.0267 12C47.9267 11.8667 47.7517 11.8 47.5017 11.8C47.0517 11.8 46.5933 11.9667 46.1267 12.3C45.66 12.6167 45.2183 13.0417 44.8017 13.575C44.4017 14.1083 44.0517 14.6917 43.7517 15.325C43.285 16.3417 43.0517 17.275 43.0517 18.125C43.0517 18.7417 43.1933 19.25 43.4767 19.65C43.76 20.0333 44.21 20.225 44.8267 20.225C45.61 20.225 46.3433 19.9583 47.0267 19.425C47.7267 18.875 48.3517 18.2417 48.9017 17.525C49.2683 17.0583 49.5933 16.5833 49.8767 16.1C50.1767 15.6167 50.4267 15.175 50.6267 14.775C50.6933 14.6583 50.7517 14.6 50.8017 14.6C50.9017 14.6 50.9517 14.7417 50.9517 15.025C50.9517 15.1583 50.9267 15.3167 50.8767 15.5C50.8433 15.6667 50.785 15.825 50.7017 15.975C50.4183 16.4417 50.1267 16.9083 49.8267 17.375C49.5433 17.8417 49.235 18.2833 48.9017 18.7C48.335 19.4333 47.6683 20.0417 46.9017 20.525C46.135 21.0083 45.185 21.25 44.0517 21.25ZM52.6116 21.2C51.845 21.2 51.1783 20.9583 50.6116 20.475C50.0616 19.9917 49.7866 19.2167 49.7866 18.15C49.7866 17.3667 49.9283 16.55 50.2116 15.7C50.495 14.85 50.895 14.0583 51.4116 13.325C51.945 12.5917 52.5866 11.9917 53.3366 11.525C54.0866 11.0583 54.9283 10.825 55.8616 10.825C56.6283 10.825 57.22 10.975 57.6366 11.275C58.07 11.5583 58.3783 11.9417 58.5616 12.425C58.745 12.9083 58.8366 13.425 58.8366 13.975C58.8366 14.3917 58.7866 14.8167 58.6866 15.25C58.6033 15.6667 58.4783 16.0833 58.3116 16.5C58.595 16.8333 58.9533 17 59.3866 17C59.8533 17 60.2866 16.825 60.6866 16.475C60.92 16.275 61.1283 16.025 61.3116 15.725C61.5116 15.4083 61.6866 15.1167 61.8366 14.85C61.8866 14.75 61.945 14.7 62.0116 14.7C62.095 14.7 62.1366 14.8167 62.1366 15.05C62.1366 15.2 62.1116 15.375 62.0616 15.575C62.0283 15.775 61.945 15.975 61.8116 16.175C61.5616 16.6083 61.3033 16.9417 61.0366 17.175C60.77 17.3917 60.47 17.5667 60.1366 17.7C59.8866 17.8 59.62 17.85 59.3366 17.85C58.82 17.85 58.3533 17.6917 57.9366 17.375C57.8033 17.6583 57.6366 17.95 57.4366 18.25C56.9533 19.0667 56.3283 19.7667 55.5616 20.35C54.795 20.9167 53.8116 21.2 52.6116 21.2ZM53.5616 20.25C53.945 20.25 54.3116 20.125 54.6616 19.875C55.0283 19.6083 55.3616 19.2833 55.6616 18.9C55.9616 18.5167 56.22 18.1167 56.4366 17.7C56.67 17.2833 56.8616 16.9167 57.0116 16.6C56.445 16.1167 56.1616 15.5083 56.1616 14.775C56.1616 14.2917 56.295 13.9167 56.5616 13.65C56.8283 13.3833 57.195 13.2667 57.6616 13.3C57.645 12.9167 57.545 12.6 57.3616 12.35C57.1783 12.1 56.8783 11.975 56.4616 11.975C56.0783 11.975 55.7116 12.0917 55.3616 12.325C55.0283 12.5583 54.7116 12.8583 54.4116 13.225C54.1283 13.575 53.87 13.9417 53.6366 14.325C53.42 14.6917 53.2366 15.025 53.0866 15.325C52.87 15.7583 52.67 16.2833 52.4866 16.9C52.3033 17.5167 52.2116 18.0917 52.2116 18.625C52.2116 19.0917 52.3033 19.4833 52.4866 19.8C52.6866 20.1 53.045 20.25 53.5616 20.25ZM73.3671 21.15C72.8004 21.15 72.4088 20.9833 72.1921 20.65C71.9921 20.3 71.8921 19.9 71.8921 19.45C71.8921 18.9667 71.9671 18.4083 72.1171 17.775C72.2838 17.125 72.4838 16.4583 72.7171 15.775C72.9671 15.075 73.2171 14.425 73.4671 13.825C73.5504 13.625 73.6254 13.4083 73.6921 13.175C73.7754 12.9417 73.8171 12.7333 73.8171 12.55C73.8171 12.2167 73.6671 12.05 73.3671 12.05C73.2504 12.05 73.1171 12.075 72.9671 12.125C72.8171 12.1583 72.6421 12.2333 72.4421 12.35C72.0921 12.5167 71.7588 12.75 71.4421 13.05C71.1254 13.3333 70.9004 13.55 70.7671 13.7C70.1338 14.5167 69.6504 15.4 69.3171 16.35C69.0004 17.3 68.6671 18.2667 68.3171 19.25C68.2171 19.5333 68.1171 19.825 68.0171 20.125C67.9171 20.425 67.8254 20.7167 67.7421 21H65.2921C65.5754 20.2 65.8588 19.4083 66.1421 18.625C66.4421 17.825 66.7421 17.0333 67.0421 16.25C67.2254 15.8 67.3921 15.3667 67.5421 14.95C67.6921 14.5167 67.8254 14.1167 67.9421 13.75C68.0088 13.5667 68.0671 13.375 68.1171 13.175C68.1671 12.975 68.1921 12.7917 68.1921 12.625C68.1921 12.2417 68.0254 12.05 67.6921 12.05C67.5754 12.05 67.4338 12.075 67.2671 12.125C67.1171 12.1583 66.9338 12.2333 66.7171 12.35C66.3671 12.5167 66.0338 12.75 65.7171 13.05C65.4004 13.3333 65.1838 13.55 65.0671 13.7C64.8504 13.9667 64.6421 14.2667 64.4421 14.6C64.2421 14.9167 64.0671 15.2417 63.9171 15.575C63.5838 16.2917 63.3171 16.975 63.1171 17.625C62.9338 18.2583 62.7588 18.8 62.5921 19.25C62.4921 19.5333 62.3921 19.825 62.2921 20.125C62.1921 20.425 62.1004 20.7167 62.0171 21H59.5921C59.5921 21 59.6504 20.7917 59.7671 20.375C59.8838 19.9583 60.0254 19.5417 60.1921 19.125L61.8171 14.975C61.8671 14.8417 61.9421 14.625 62.0421 14.325C62.1588 14.0083 62.2754 13.6667 62.3921 13.3C62.5088 12.9167 62.6088 12.55 62.6921 12.2C62.7754 11.8333 62.8171 11.5333 62.8171 11.3C62.8171 11.15 62.8004 11.05 62.7671 11C62.9171 11 63.0838 11 63.2671 11C63.4671 10.9833 63.6504 10.975 63.8171 10.975C64.0504 10.975 64.2671 10.9833 64.4671 11C64.6838 11.0167 64.8254 11.0583 64.8921 11.125C65.0754 11.2583 65.1671 11.4583 65.1671 11.725C65.1671 11.9417 65.1254 12.1583 65.0421 12.375C64.9588 12.575 64.9004 12.7417 64.8671 12.875C65.1004 12.6583 65.3588 12.45 65.6421 12.25C65.9254 12.05 66.3338 11.7917 66.8671 11.475C67.2004 11.2917 67.5921 11.1417 68.0421 11.025C68.4921 10.9083 68.9004 10.85 69.2671 10.85C70.1504 10.85 70.5921 11.2167 70.5921 11.95C70.5921 12.25 70.5004 12.65 70.3171 13.15C70.6671 12.8 71.0254 12.5 71.3921 12.25C71.7754 11.9833 72.1754 11.725 72.5921 11.475C72.9254 11.2917 73.3171 11.1417 73.7671 11.025C74.2171 10.9083 74.6254 10.85 74.9921 10.85C75.8754 10.85 76.3171 11.225 76.3171 11.975C76.3171 12.1417 76.2838 12.3333 76.2171 12.55C76.1671 12.7667 76.0921 13.0083 75.9921 13.275C75.8921 13.5417 75.7504 13.9083 75.5671 14.375C75.3838 14.825 75.1921 15.3083 74.9921 15.825C74.8088 16.325 74.6504 16.8083 74.5171 17.275C74.4004 17.725 74.3421 18.1 74.3421 18.4C74.3421 18.5833 74.3671 18.75 74.4171 18.9C74.4838 19.0333 74.6004 19.1 74.7671 19.1C74.8838 19.1 75.0504 19.0417 75.2671 18.925C75.5671 18.7417 75.8671 18.5 76.1671 18.2C76.4671 17.9 76.6671 17.6833 76.7671 17.55C77.1004 17.1167 77.4171 16.6583 77.7171 16.175C78.0171 15.675 78.2754 15.2167 78.4921 14.8C78.5754 14.6667 78.6338 14.6 78.6671 14.6C78.7671 14.6 78.8171 14.7417 78.8171 15.025C78.8171 15.1583 78.7921 15.3167 78.7421 15.5C78.7088 15.6667 78.6504 15.825 78.5671 15.975C78.3338 16.375 78.0588 16.8167 77.7421 17.3C77.4254 17.7833 77.1004 18.25 76.7671 18.7C76.5338 19.0167 76.2254 19.3667 75.8421 19.75C75.4588 20.1333 75.0504 20.4667 74.6171 20.75C74.1838 21.0167 73.7671 21.15 73.3671 21.15ZM83.4431 20.65C82.6764 21.05 81.8681 21.25 81.0181 21.25C80.3014 21.25 79.6347 21.075 79.0181 20.725C78.4014 20.375 77.9847 19.8167 77.7681 19.05C77.6681 18.7 77.6181 18.3333 77.6181 17.95C77.6181 17.3167 77.7264 16.6667 77.9431 16C78.1764 15.3167 78.4764 14.6917 78.8431 14.125C79.4097 13.2417 80.1264 12.5083 80.9931 11.925C81.8597 11.3417 82.8181 11.05 83.8681 11.05C84.6514 11.05 85.2597 11.25 85.6931 11.65C86.1264 12.05 86.3431 12.5167 86.3431 13.05C86.3431 13.6833 86.1264 14.2417 85.6931 14.725C85.2764 15.1917 84.7264 15.55 84.0431 15.8C83.7097 15.9167 83.3514 16.0083 82.9681 16.075C82.6014 16.125 82.2514 16.15 81.9181 16.15C81.2347 16.15 80.7097 16.0583 80.3431 15.875C80.0264 16.6917 79.8681 17.4417 79.8681 18.125C79.8681 18.7417 80.0097 19.25 80.2931 19.65C80.5764 20.0333 81.0264 20.225 81.6431 20.225C82.1597 20.225 82.6681 20.0833 83.1681 19.8C83.6847 19.5167 84.1597 19.1667 84.5931 18.75C85.0431 18.3333 85.4181 17.9333 85.7181 17.55C85.9514 17.2667 86.1514 17 86.3181 16.75C86.4847 16.5 86.6597 16.2167 86.8431 15.9C87.0264 15.5667 87.2431 15.1583 87.4931 14.675C87.5597 14.5583 87.6181 14.5 87.6681 14.5C87.7681 14.5 87.8181 14.6333 87.8181 14.9C87.8181 15.05 87.7931 15.2167 87.7431 15.4C87.7097 15.5667 87.6431 15.7417 87.5431 15.925C87.3097 16.3417 87.0264 16.8 86.6931 17.3C86.3764 17.7833 86.0514 18.25 85.7181 18.7C85.4181 19.1 85.0764 19.4667 84.6931 19.8C84.3097 20.1333 83.8931 20.4167 83.4431 20.65ZM81.1681 15.325C81.2514 15.375 81.3431 15.4083 81.4431 15.425C81.5431 15.4417 81.6431 15.45 81.7431 15.45C82.0764 15.45 82.4097 15.375 82.7431 15.225C83.0764 15.0583 83.3597 14.8917 83.5931 14.725C83.9764 14.4583 84.3014 14.1417 84.5681 13.775C84.8347 13.4083 84.9847 12.9917 85.0181 12.525C85.0347 12.325 84.9847 12.1583 84.8681 12.025C84.7681 11.875 84.5847 11.8 84.3181 11.8C84.1847 11.8 84.0181 11.825 83.8181 11.875C83.5514 11.9417 83.2847 12.0667 83.0181 12.25C82.7514 12.4333 82.4931 12.65 82.2431 12.9C82.1597 12.9833 82.0097 13.15 81.7931 13.4C81.5931 13.6333 81.4014 13.9 81.2181 14.2C81.0347 14.4833 80.9431 14.7333 80.9431 14.95C80.9431 15.1333 81.0181 15.2583 81.1681 15.325ZM87.828 24.25C88.428 23.35 88.878 22.45 89.178 21.55C89.478 20.65 89.6697 19.9167 89.753 19.35C89.7697 19.2333 89.878 19.15 90.078 19.1C90.2947 19.05 90.528 19.025 90.778 19.025C91.078 19.025 91.3447 19.0583 91.578 19.125C91.828 19.175 91.928 19.2667 91.878 19.4C91.6447 19.9667 91.3364 20.5667 90.953 21.2C90.5697 21.85 90.178 22.4417 89.778 22.975C89.378 23.5083 89.0114 23.9 88.678 24.15C88.6114 24.2 88.5364 24.2417 88.453 24.275C88.3697 24.325 88.278 24.35 88.178 24.35C88.0614 24.35 87.9447 24.3167 87.828 24.25ZM115.81 21.275L112.86 14.975L102.96 16.7L100.36 21.275H99.9853L106.81 1.525L110.76 0.924999L118.76 20.95L115.81 21.275ZM108.785 6.275L104.91 13.2L112.56 14.375L108.785 6.275ZM121.409 21L120.509 7.075H124.909L124.834 9.55C125.217 9.05 125.684 8.59167 126.234 8.175C126.784 7.74167 127.376 7.4 128.009 7.15C128.659 6.88333 129.309 6.75 129.959 6.75V10.425C129.626 10.2417 129.251 10.1083 128.834 10.025C128.434 9.925 128.017 9.875 127.584 9.875C127.067 9.875 126.559 9.94167 126.059 10.075C125.559 10.1917 125.142 10.3667 124.809 10.6L124.484 21H121.409ZM132.614 26.3L131.764 7.075H136.139L136.064 8.9C136.731 8.33333 137.522 7.83333 138.439 7.4C139.356 6.96667 140.247 6.75 141.114 6.75C142.697 6.75 143.872 7.24167 144.639 8.225C145.422 9.19167 145.814 10.5667 145.814 12.35C145.814 14.1 145.397 15.6 144.564 16.85C143.731 18.0833 142.547 19.0583 141.014 19.775C139.481 20.4917 137.672 20.9583 135.589 21.175L135.389 26.3H132.614ZM135.639 20.075C137.289 19.5083 138.581 18.8333 139.514 18.05C140.447 17.2667 141.106 16.4083 141.489 15.475C141.872 14.5417 142.064 13.5667 142.064 12.55C142.064 11.4167 141.872 10.6 141.489 10.1C141.106 9.6 140.547 9.35 139.814 9.35C139.147 9.35 138.514 9.4 137.914 9.5C137.331 9.6 136.697 9.78333 136.014 10.05L135.639 20.075ZM162.288 19C161.521 19.7167 160.846 20.2833 160.263 20.7C159.679 21.1167 159.154 21.325 158.688 21.325C158.321 21.325 157.988 21.1833 157.688 20.9C157.404 20.6 157.138 20.125 156.888 19.475C156.371 19.925 155.738 20.3083 154.988 20.625C154.238 20.925 153.429 21.125 152.563 21.225C152.296 21.2583 152.038 21.2833 151.788 21.3C151.538 21.3167 151.296 21.325 151.063 21.325C148.713 21.325 147.538 20.4833 147.538 18.8C147.538 18.6 147.554 18.3917 147.588 18.175C147.621 17.9583 147.671 17.725 147.738 17.475C147.888 16.925 148.188 16.4333 148.638 16C149.104 15.55 149.663 15.15 150.313 14.8C150.963 14.4333 151.629 14.1 152.313 13.8C152.996 13.4833 153.629 13.1917 154.213 12.925C154.813 12.6417 155.296 12.3667 155.663 12.1C156.046 11.8333 156.238 11.5667 156.238 11.3C156.238 10.5667 156.146 10.075 155.963 9.825C155.779 9.55833 155.429 9.425 154.913 9.425C154.546 9.425 153.979 9.45833 153.213 9.525C152.446 9.59167 151.604 9.69167 150.688 9.825C149.771 9.95833 148.896 10.1333 148.063 10.35L147.938 10.1C148.388 9.66667 148.963 9.25 149.663 8.85C150.379 8.45 151.138 8.09167 151.938 7.775C152.754 7.45833 153.563 7.20833 154.363 7.025C155.163 6.84167 155.888 6.75 156.538 6.75C157.571 6.75 158.338 6.85833 158.838 7.075C159.354 7.275 159.696 7.68333 159.863 8.3C160.046 8.9 160.138 9.80833 160.138 11.025V17.35C160.138 17.95 160.188 18.3833 160.288 18.65C160.404 18.9 160.663 19.025 161.063 19.025C161.196 19.025 161.354 19.0083 161.538 18.975C161.738 18.9417 161.954 18.9 162.188 18.85L162.288 19ZM156.438 13.475C156.071 13.7917 155.579 14.1333 154.963 14.5C154.363 14.85 153.779 15.2333 153.213 15.65C152.646 16.05 152.229 16.5 151.963 17C151.729 17.4667 151.613 17.875 151.613 18.225C151.613 18.5583 151.713 18.8333 151.913 19.05C152.129 19.2667 152.429 19.375 152.813 19.375C152.896 19.375 152.979 19.375 153.063 19.375C153.163 19.3583 153.254 19.3417 153.338 19.325C153.671 19.2417 154.054 19.125 154.488 18.975C154.938 18.825 155.354 18.65 155.738 18.45C156.138 18.25 156.421 18.05 156.588 17.85L156.438 13.475ZM173.57 21L173.17 12.425C173.12 11.325 172.97 10.6 172.72 10.25C172.486 9.88333 172.111 9.7 171.595 9.7C171.195 9.7 170.636 9.80833 169.92 10.025C169.203 10.225 168.503 10.5417 167.82 10.975L167.345 21H164.27L163.62 7.075H167.995L167.87 9.725C168.386 9.14167 168.978 8.625 169.645 8.175C170.328 7.725 171.036 7.375 171.77 7.125C172.503 6.875 173.203 6.75 173.87 6.75C175.12 6.75 175.97 7.09167 176.42 7.775C176.87 8.44167 177.095 9.41667 177.095 10.7C177.095 10.8167 177.086 10.9333 177.07 11.05C177.07 11.15 177.07 11.2667 177.07 11.4L176.67 21H173.57Z" fill="white" fill-opacity="0.9"/>
</svg>
